<?xml version="1.0" encoding="utf-8"?>
<!-- Generator: Adobe Illustrator 15.0.0, SVG Export Plug-In . SVG Version: 6.00 Build 0)  -->
<!DOCTYPE svg PUBLIC "-//W3C//DTD SVG 1.1//EN" "http://www.w3.org/Graphics/SVG/1.1/DTD/svg11.dtd">
<svg version="1.1" id="Capa_1" xmlns="http://www.w3.org/2000/svg" xmlns:xlink="http://www.w3.org/1999/xlink" x="0px" y="0px"
	 width="283.41px" height="91.79px" viewBox="0 0 283.41 91.79" enable-background="new 0 0 283.41 91.79" xml:space="preserve">
<rect fill="#DF6FA8" width="283.41" height="91.79"/>
<g>
	<g>
		<path fill="#FFFFFF" d="M48.888,62.15c0-0.593-0.014-1.169-0.059-1.728c-0.04-0.534-0.086-1.061-0.132-1.552
			c-1.487-2.21-3.035-4.49-4.649-6.864c-1.614-2.373-3.393-4.802-5.336-7.326c0.289,0,0.62,0,0.989,0.01
			c0.383,0.011,0.758,0.034,1.129,0.034c0.377,0.025,0.729,0.036,1.06,0.047c0.324,0.012,0.579,0.012,0.757,0.012
			c0.365,0,0.772,0,1.21-0.034c0.447-0.025,0.95-0.069,1.523-0.15c0.834,2.094,1.736,3.97,2.704,5.566
			c0.977,1.623,2.042,3.126,3.2,4.54c0.823-1.335,1.704-2.803,2.623-4.423c0.92-1.597,1.938-3.557,3.057-5.835
			c0.499,0.07,0.948,0.125,1.365,0.151c0.416,0.033,0.804,0.033,1.165,0.033c0.162,0,0.317,0,0.458-0.022
			c0.137-0.011,0.271-0.011,0.403-0.011h0.512c0.097,0,0.258,0,0.462,0.011c0.213,0.022,0.422,0.022,0.629,0.022h1.13
			c-1.482,2.061-2.698,3.729-3.647,4.99c-0.948,1.284-1.718,2.303-2.32,3.091c-0.603,0.766-1.061,1.391-1.392,1.832
			c-0.323,0.437-0.604,0.845-0.832,1.225c-0.238,0.37-0.47,0.799-0.708,1.272c-0.231,0.461-0.538,1.112-0.936,1.947v1.679
			c0,1.318,0.057,2.836,0.162,4.546c0.1,1.73,0.29,3.775,0.543,6.136c-0.543-0.08-0.931-0.122-1.162-0.138
			c-0.231-0.011-0.428-0.021-0.578-0.021h-2.826c-0.129,0-0.307,0.011-0.521,0.047c-0.226,0.022-0.453,0.032-0.684,0.032
			c0.261-1.953,0.441-3.668,0.546-5.196C48.834,64.58,48.888,63.263,48.888,62.15z"/>
		<path fill="#FFFFFF" d="M86.523,59.568c0,3.899-0.868,6.854-2.616,8.877c-1.749,2.018-4.422,3.025-8.01,3.025
			c-7.479,0-11.212-3.52-11.212-10.57c0-4.423,0.873-7.632,2.616-9.645c1.749-1.989,4.479-2.985,8.208-2.985
			C82.856,48.271,86.523,52.032,86.523,59.568z M69.407,60.009c0,4.847,2.017,7.291,6.044,7.291c4.163,0,6.24-2.384,6.24-7.143
			c0-5.126-2.015-7.673-6.049-7.673c-1.221,0-2.233,0.113-3.038,0.381c-0.805,0.255-1.448,0.685-1.918,1.26
			c-0.462,0.591-0.797,1.367-0.996,2.33C69.499,57.414,69.407,58.597,69.407,60.009z"/>
		<path fill="#FFFFFF" d="M89.645,66.712c2.518-2.166,4.775-4.392,6.767-6.683c1.986-2.28,3.908-4.72,5.748-7.315
			c-0.051,0.023-0.202,0.023-0.468,0.023h-1.946c-1.475,0-3.011,0.07-4.584,0.21c-1.575,0.134-3.288,0.321-5.164,0.576v-0.856
			c0-0.129,0.013-0.231,0.013-0.323c0.022-0.091,0.028-0.171,0.028-0.231c0-0.171-0.046-0.556-0.144-1.113
			c-0.088-0.577-0.221-1.365-0.407-2.346c0.03,0.033,0.175,0.033,0.435,0.033h6.669c2.524,0,4.781-0.022,6.783-0.07
			c2.003-0.047,3.701-0.141,5.105-0.232c0.159,0.696,0.267,1.32,0.336,1.841c0.06,0.543,0.095,1.031,0.095,1.469v0.419
			c0,0.092-0.008,0.195-0.019,0.347c-0.017,0.139-0.03,0.255-0.058,0.327c-0.903,0.784-1.933,1.76-3.062,2.961
			c-1.135,1.202-2.281,2.455-3.473,3.776c-1.182,1.339-2.357,2.659-3.509,3.981c-1.158,1.296-2.217,2.476-3.178,3.519h3.861
			c1.951,0,3.665-0.069,5.153-0.218c1.475-0.141,2.917-0.339,4.329-0.604c0.382,1.4,0.584,2.407,0.584,2.996
			c0,0.685-0.226,1.427-0.665,2.224c-1.638-0.126-3.353-0.22-5.129-0.274c-1.784-0.07-3.723-0.12-5.829-0.12
			c-1.25,0-2.553,0.024-3.903,0.024c-1.349,0.025-2.726,0.047-4.138,0.104c-0.127-0.542-0.207-1.005-0.248-1.363
			c-0.041-0.361-0.065-0.731-0.065-1.104c0-0.296,0.011-0.625,0.024-0.959C89.604,67.396,89.616,67.046,89.645,66.712z"/>
		<path fill="#FFFFFF" d="M117.69,56.488c-0.855-0.372-1.654-0.705-2.378-1.028c-0.735-0.34-1.402-0.63-1.991-0.914
			c1.735-4.01,5.158-6.011,10.257-6.011c1.87,0,3.445,0.209,4.717,0.625c1.275,0.419,2.298,1.123,3.062,2.081
			c0.765,0.984,1.314,2.272,1.662,3.879c0.336,1.619,0.503,3.603,0.503,5.977v2.682c0,1.335,0.064,2.595,0.192,3.79
			c0.125,1.189,0.325,2.374,0.548,3.553h-1.365c-0.462,0-1.013,0-1.638,0.034c-0.625,0.024-1.286,0.073-1.985,0.115
			c-0.191-0.264-0.318-0.544-0.394-0.854c-0.075-0.314-0.115-0.799-0.115-1.449c-0.834,0.996-1.8,1.646-2.912,1.97
			c-1.101,0.324-2.397,0.485-3.874,0.485c-3.173,0-5.521-0.555-7.039-1.667c-1.523-1.122-2.285-2.963-2.285-5.531
			c0-2.294,0.809-4.066,2.44-5.304c1.622-1.252,4.141-1.877,7.544-1.877c1.123,0,2.193,0.117,3.212,0.349
			c1.03,0.232,1.961,0.672,2.802,1.318c-0.116-1.344-0.285-2.421-0.517-3.218c-0.232-0.786-0.556-1.388-0.972-1.781
			c-0.422-0.419-0.945-0.672-1.581-0.764c-0.643-0.118-1.4-0.161-2.287-0.161c-0.487,0-0.973,0-1.442,0.021
			c-0.463,0.021-0.931,0.127-1.398,0.345c-0.471,0.219-0.935,0.591-1.386,1.093C118.615,54.751,118.148,55.492,117.69,56.488z
			 M122.988,61.284c-0.771,0-1.493,0.044-2.149,0.136c-0.641,0.094-1.22,0.257-1.707,0.486c-0.498,0.211-0.891,0.508-1.191,0.905
			c-0.296,0.393-0.478,0.898-0.534,1.526c0.111,0.578,0.302,1.028,0.573,1.39c0.278,0.369,0.625,0.672,1.053,0.878
			c0.429,0.231,0.928,0.371,1.501,0.463c0.57,0.07,1.191,0.106,1.872,0.106c0.754,0,1.501-0.06,2.266-0.176
			c0.75-0.115,1.423-0.303,2.026-0.545c0.595-0.241,1.07-0.564,1.44-0.935c0.365-0.372,0.544-0.835,0.544-1.391
			c0-0.531-0.208-0.994-0.621-1.379c-0.423-0.381-0.925-0.659-1.52-0.878c-0.604-0.195-1.229-0.358-1.87-0.452
			C124.018,61.328,123.456,61.284,122.988,61.284z"/>
		<path fill="#FFFFFF" d="M159.676,70.564c-0.406-1.294-0.88-2.694-1.445-4.212c-0.58-1.505-1.195-3.035-1.866-4.585
			c-0.66-1.538-1.331-3.079-2.027-4.573c-0.688-1.503-1.336-2.927-1.972-4.247c-0.02,1.006-0.04,1.964-0.07,2.859
			c-0.019,0.891-0.034,1.861-0.034,2.856c0,2.223,0.046,4.363,0.15,6.45c0.115,2.085,0.268,4.134,0.504,6.157
			c-0.123,0-0.313-0.01-0.557-0.021c-0.26-0.011-0.514-0.021-0.766-0.058c-0.265-0.022-0.524-0.044-0.774-0.044
			c-0.267-0.026-0.474-0.026-0.636-0.026c-0.295,0-0.661,0.026-1.054,0.048c-0.387,0.044-0.74,0.069-1.036,0.069h-0.603
			c0.215-3.276,0.405-6.533,0.551-9.771c0.162-3.24,0.231-6.347,0.231-9.354c0-1.227-0.008-2.533-0.008-3.89
			c-0.009-1.355-0.056-2.617-0.102-3.774c0.311,0,0.572,0,0.779,0.023c0.211,0.021,0.377,0.046,0.511,0.046l4.748-0.07
			c0.489,1.551,1.046,3.103,1.618,4.652c0.573,1.555,1.216,3.104,1.877,4.681c0.67,1.573,1.377,3.182,2.153,4.815
			c0.763,1.642,1.573,3.333,2.476,5.069c0.719-1.437,1.438-2.884,2.085-4.353c0.697-1.458,1.344-2.986,1.97-4.563
			c0.611-1.574,1.238-3.22,1.828-4.907c0.603-1.702,1.193-3.521,1.795-5.396c0.519,0,0.997-0.058,1.423-0.139
			c0.464-0.092,1.043-0.14,1.761-0.14c0.336,0,0.754,0.011,1.192,0.06c0.45,0.032,0.972,0.102,1.54,0.219
			c-0.069,2.429-0.128,4.712-0.162,6.808c-0.047,2.115-0.07,3.944-0.07,5.511c0,2.757,0.07,5.324,0.175,7.709
			c0.125,2.408,0.321,4.654,0.613,6.763h-0.95c-0.206,0-0.406-0.01-0.614-0.025c-0.195-0.011-0.427-0.021-0.658-0.021h-1.206
			c-0.277,0-0.67,0.011-1.111,0.021c-0.428,0.016-0.799,0.025-1.088,0.025c0.116-2.524,0.187-4.865,0.243-7.007
			c0.046-2.141,0.071-3.971,0.071-5.439v-4.596c0-0.321-0.012-0.534-0.025-0.673c-1.618,3.288-2.997,6.302-4.145,9.067
			c-1.146,2.775-2.116,5.521-2.904,8.254c-0.439,0.207-0.787,0.324-1.101,0.368c-0.323,0.036-0.591,0.058-0.821,0.058
			c-0.324,0-0.648-0.021-0.995-0.079c-0.347-0.044-0.744-0.164-1.156-0.304L159.676,70.564z"/>
		<path fill="#FFFFFF" d="M200.531,59.568c0,3.899-0.879,6.854-2.617,8.877c-1.746,2.018-4.41,3.025-8.011,3.025
			c-7.48,0-11.205-3.52-11.205-10.57c0-4.423,0.867-7.632,2.614-9.645c1.739-1.989,4.493-2.985,8.209-2.985
			C196.86,48.271,200.531,52.032,200.531,59.568z M183.42,60.009c0,4.847,2.003,7.291,6.043,7.291c4.168,0,6.229-2.384,6.229-7.143
			c0-5.126-2.013-7.673-6.031-7.673c-1.239,0-2.246,0.113-3.046,0.381c-0.81,0.255-1.436,0.685-1.898,1.26
			c-0.474,0.591-0.811,1.367-1.019,2.33C183.514,57.414,183.42,58.597,183.42,60.009z"/>
		<path fill="#FFFFFF" d="M225.227,59.568c0,3.899-0.868,6.854-2.627,8.877c-1.739,2.018-4.399,3.025-8.003,3.025
			c-7.477,0-11.216-3.52-11.216-10.57c0-4.423,0.879-7.632,2.615-9.645c1.761-1.989,4.492-2.985,8.208-2.985
			C221.556,48.271,225.227,52.032,225.227,59.568z M208.104,60.009c0,4.847,2.014,7.291,6.043,7.291
			c4.169,0,6.241-2.384,6.241-7.143c0-5.126-2.016-7.673-6.033-7.673c-1.251,0-2.245,0.113-3.055,0.381
			c-0.812,0.255-1.436,0.685-1.9,1.26c-0.475,0.591-0.812,1.367-1.007,2.33C208.206,57.414,208.104,58.597,208.104,60.009z"/>
		<path fill="#FFFFFF" d="M249.644,71.31c-1.506-0.071-2.758-0.13-3.706-0.154c-0.973-0.034-1.864-0.034-2.698-0.034
			c0.338-1.713,0.591-3.262,0.775-4.667c0.164-1.388,0.234-2.788,0.234-4.19c0-1.909-0.07-3.46-0.199-4.688
			c-0.149-1.216-0.404-2.185-0.786-2.894c-0.381-0.718-0.902-1.217-1.588-1.48c-0.669-0.281-1.549-0.415-2.64-0.415
			c-1.18,0-2.128,0.204-2.847,0.646c-0.74,0.429-1.296,1.054-1.689,1.877c-0.418,0.807-0.695,1.814-0.844,3.009
			c-0.164,1.205-0.232,2.544-0.232,4.051c0,2.479,0.232,5.441,0.694,8.869c-0.547-0.036-1.076-0.047-1.587-0.069
			c-0.511,0-1.018-0.014-1.53-0.014c-0.52,0-1.016,0.014-1.492,0.014c-0.474,0.022-0.935,0.033-1.435,0.069
			c0.289-1.715,0.52-3.519,0.659-5.409c0.161-1.888,0.232-3.923,0.232-6.144c0-1.946-0.046-3.754-0.15-5.398
			c-0.106-1.651-0.292-3.38-0.51-5.161c0.811-0.241,1.771-0.358,2.848-0.358c0.417,0,0.821,0.011,1.25,0.047
			c0.405,0.022,0.847,0.055,1.333,0.112l-0.405,2.191c1.907-2.062,4.179-3.093,6.829-3.093c0.776,0,1.564,0.105,2.374,0.312
			c0.811,0.209,1.573,0.532,2.314,0.952c0.717,0.392,1.378,0.902,1.956,1.505c0.592,0.599,1.055,1.293,1.426,2.071
			c0.242,0.519,0.415,1.354,0.554,2.51c0.117,1.162,0.197,2.551,0.197,4.193v3.124c0,1.416,0.035,2.827,0.105,4.253
			C249.167,68.365,249.341,69.825,249.644,71.31z"/>
	</g>
	<path fill="#FFFFFF" d="M148.601,30.011c0,6.937-9.643,11.011-14.836,9.897c-2.516-0.506,6.085-4.698,6.085-10.187
		c0-5.499-10.425-10.047-4.498-10.603C142.802,18.42,148.601,24.511,148.601,30.011z"/>
</g>
</svg>
